<svg width="23" height="32" viewBox="0 0 23 32" fill="none" xmlns="http://www.w3.org/2000/svg">
    <path d="M17.6345 31.064H18.3437V29.1458H17.6345V31.064ZM15.3949 29.1458H14.6722V31.064H15.3949V29.1458ZM15.8841 29.2526C15.7255 29.3713 15.6462 29.533 15.6462 29.7377C15.6462 29.9276 15.706 30.0641 15.8257 30.1472C15.9365 30.2451 16.0935 30.3178 16.297 30.3653C16.4556 30.389 16.5588 30.4127 16.6067 30.4365C16.6426 30.4721 16.6606 30.5017 16.6606 30.5255C16.6606 30.5967 16.5872 30.6323 16.4406 30.6323C16.3329 30.6323 16.2252 30.6145 16.1175 30.5789C16.0097 30.5551 15.9185 30.5195 15.8437 30.4721L15.6283 30.9571C15.8826 31.064 16.1668 31.1174 16.481 31.1174C17.0585 31.1174 17.3473 30.8904 17.3473 30.4365C17.3473 30.2792 17.2934 30.159 17.1857 30.076C17.075 29.9929 16.8999 29.9157 16.6606 29.8446C16.5259 29.8089 16.4346 29.7793 16.3868 29.7555C16.3389 29.7437 16.315 29.7199 16.315 29.6843C16.315 29.622 16.3703 29.5909 16.481 29.5909C16.5648 29.5909 16.6606 29.6102 16.7683 29.6487C16.8999 29.6725 17.0032 29.7081 17.078 29.7555L17.2934 29.2348C17.0032 29.1399 16.7324 29.0924 16.481 29.0924C16.2147 29.0924 16.0157 29.1458 15.8841 29.2526ZM21.7234 29.1458H21.0546V31.064H21.7593V29.8089C21.8191 29.7259 21.9044 29.6843 22.0151 29.6843C22.1228 29.6843 22.1946 29.714 22.2305 29.7734C22.2545 29.8327 22.2664 29.9395 22.2664 30.0938V31.064H22.9711V29.8802C22.9711 29.6042 22.9232 29.401 22.8275 29.2704C22.7198 29.1518 22.5387 29.0924 22.2844 29.0924C22.069 29.0924 21.882 29.1518 21.7234 29.2704V29.1458ZM18.613 30.0938C18.613 30.4053 18.7102 30.6516 18.9047 30.8326C19.0962 31.0225 19.355 31.1174 19.6812 31.1174C20.0073 31.1174 20.2721 31.0225 20.4756 30.8326C20.6581 30.6516 20.7494 30.4053 20.7494 30.0938C20.7494 29.7852 20.6581 29.5464 20.4756 29.3773C20.2721 29.1874 20.0073 29.0924 19.6812 29.0924C19.355 29.0924 19.0962 29.1874 18.9047 29.3773C18.7102 29.5464 18.613 29.7852 18.613 30.0938ZM19.3356 30.0938C19.3356 29.9633 19.3655 29.8683 19.4253 29.8089C19.4882 29.7377 19.5735 29.7022 19.6812 29.7022C19.7889 29.7022 19.8727 29.7377 19.9325 29.8089C19.9924 29.8683 20.0223 29.9633 20.0223 30.0938C20.0223 30.2154 19.9924 30.3118 19.9325 30.383C19.8727 30.4661 19.7889 30.5077 19.6812 30.5077C19.5735 30.5077 19.4882 30.4661 19.4253 30.383C19.3655 30.3118 19.3356 30.2154 19.3356 30.0938ZM8.63098 29.7199H8.86438V30.4899C8.86438 30.7065 8.91823 30.8622 9.02598 30.9571C9.14866 31.064 9.31171 31.1174 9.51517 31.1174C9.72164 31.1174 9.88473 31.0996 10.0044 31.064V30.5077C9.92064 30.5433 9.82935 30.5611 9.73063 30.5611C9.6588 30.5611 9.61092 30.5433 9.587 30.5077C9.56305 30.4839 9.55109 30.4305 9.55109 30.3475V29.7199H10.0044V29.1458H9.55109V28.4115H8.86438V29.1458H8.63098V29.7199ZM13.8733 28.5717L13.3661 29.9514L12.8994 28.5717H12.0825L13.1687 31.064H13.5681L14.6543 28.5717H13.8733ZM12.0286 30.8326C12.2112 30.6516 12.3024 30.4053 12.3024 30.0938C12.3024 29.7852 12.2112 29.5464 12.0286 29.3773C11.8251 29.1874 11.5604 29.0924 11.2342 29.0924C10.8961 29.0924 10.6373 29.1874 10.4577 29.3773C10.2513 29.5464 10.148 29.7852 10.148 30.0938C10.148 30.4053 10.2513 30.6516 10.4577 30.8326C10.6373 31.0225 10.8961 31.1174 11.2342 31.1174C11.5604 31.1174 11.8251 31.0225 12.0286 30.8326ZM11.2342 30.5077C11.1265 30.5077 11.0412 30.4661 10.9784 30.383C10.9185 30.3118 10.8886 30.2154 10.8886 30.0938C10.8886 29.9633 10.9185 29.8683 10.9784 29.8089C11.0412 29.7377 11.1265 29.7022 11.2342 29.7022C11.3419 29.7022 11.4257 29.7377 11.4856 29.8089C11.5454 29.8683 11.5753 29.9633 11.5753 30.0938C11.5753 30.2154 11.5454 30.3118 11.4856 30.383C11.4257 30.4661 11.3419 30.5077 11.2342 30.5077ZM0.924589 29.3238C1.03231 29.2171 1.18341 29.1636 1.37791 29.1636C1.49759 29.1636 1.59933 29.1874 1.68311 29.2348C1.77886 29.2942 1.85666 29.3654 1.9165 29.4485L2.47754 28.999C2.34588 28.8447 2.1843 28.726 1.9928 28.643C1.79831 28.5599 1.58736 28.5183 1.35995 28.5183C0.938053 28.5183 0.605919 28.637 0.363552 28.8744C0.121184 29.1028 0 29.4144 0 29.8089C0 30.2036 0.121184 30.5195 0.363552 30.7569C0.605919 30.9972 0.938053 31.1174 1.35995 31.1174C1.82973 31.1174 2.20226 30.9557 2.47754 30.6323L1.9165 30.1828C1.85666 30.2688 1.77886 30.3356 1.68311 30.383C1.59933 30.4424 1.49759 30.4721 1.37791 30.4721C1.18341 30.4721 1.03231 30.4127 0.924589 30.294C0.804901 30.1724 0.745058 30.0107 0.745058 29.8089C0.745058 29.6161 0.804901 29.4544 0.924589 29.3238ZM7.12742 29.2526V29.1458H6.44071V31.6737H7.12742V30.9038C7.22317 31.0462 7.38625 31.1174 7.61664 31.1174C7.89491 31.1174 8.10587 31.0225 8.2495 30.8326C8.40508 30.6516 8.48289 30.4113 8.48289 30.1116C8.48289 29.803 8.41106 29.5583 8.26744 29.3773C8.11185 29.1874 7.90089 29.0924 7.63458 29.0924C7.41615 29.0924 7.24709 29.1458 7.12742 29.2526ZM7.10948 30.3297V29.8446C7.1334 29.7971 7.17529 29.7555 7.23513 29.7199C7.283 29.6962 7.34436 29.6843 7.41916 29.6843C7.52687 29.6843 7.61664 29.714 7.68844 29.7734C7.74831 29.8446 7.77821 29.9514 7.77821 30.0938C7.77821 30.2273 7.74831 30.3296 7.68844 30.4008C7.61664 30.4839 7.52089 30.5255 7.40119 30.5255C7.26655 30.5255 7.16931 30.4602 7.10948 30.3297ZM4.77554 29.1458H3.98112L4.8294 30.9928C4.7576 31.1233 4.63192 31.1886 4.45237 31.1886C4.37757 31.1886 4.2923 31.1708 4.19654 31.1352V31.6915C4.28034 31.7152 4.38957 31.7271 4.52421 31.7271C4.64388 31.7271 4.73963 31.7211 4.81146 31.7093C4.88325 31.6974 4.96255 31.6678 5.04935 31.6203C5.1331 31.5728 5.2169 31.5001 5.30069 31.4022C5.37248 31.3073 5.43232 31.1886 5.48019 31.0462L6.24323 29.1458H5.49817L5.13908 30.1472L4.77554 29.1458ZM3.94521 29.0924H3.90929C3.69086 29.0924 3.49788 29.1755 3.33032 29.3416V29.1458H2.66156V31.064H3.36622V30.1828C3.36622 29.9217 3.49938 29.7912 3.76567 29.7912C3.81354 29.7912 3.87341 29.7971 3.94521 29.8089V29.0924ZM6.82222 22.31C3.90183 21.7374 1.65768 20.3503 0.0897658 18.1489V27.3523H6.82222V22.31ZM5.22886 9.0388V9.09222L0.0897658 5.97247V17.8284L4.61398 14.8511C4.96407 15.5335 5.48171 16.1135 6.1669 16.5912C6.85513 17.057 7.66303 17.3314 8.59061 17.4145C10.1106 17.5718 11.3539 17.238 12.3204 16.4132C13.2958 15.5973 13.8673 14.3956 14.0349 12.8083C14.1935 11.2418 13.8748 9.96747 13.0789 8.98542C12.283 8.00633 11.125 7.44408 9.60494 7.29871C8.71328 7.20376 7.87545 7.31798 7.0915 7.64139C6.33148 7.96476 5.71062 8.43059 5.22886 9.0388ZM17.7826 5.70546C19.5061 7.70219 20.2048 10.2597 19.8787 13.378C19.5645 16.5111 18.3646 18.8906 16.279 20.5165C15.2557 21.3294 14.1112 21.9035 12.8455 22.2388V27.3523H22.9711V0L12.6974 2.6569C14.7949 3.20579 16.49 4.22196 17.7826 5.70546Z" fill="#0E8AC8"/>
</svg>
