<svg width="150" height="42" viewBox="0 0 150 42" fill="none" xmlns="http://www.w3.org/2000/svg">
    <mask id="mask0_15_2273" style="mask-type:luminance" maskUnits="userSpaceOnUse" x="0" y="0" width="150" height="41">
        <path d="M0 0.782013H150V40.782H0V0.782013Z" fill="white"/>
    </mask>
    <g mask="url(#mask0_15_2273)">
        <path d="M59.4484 16.064H61.4774V25.382H59.4484V24.04C58.6784 25.102 57.5884 25.624 56.1604 25.624C54.8644 25.624 53.7744 25.158 52.8544 24.208C51.9344 23.258 51.4824 22.084 51.4824 20.723C51.4824 19.344 51.9334 18.189 52.8544 17.238C53.7744 16.288 54.8644 15.822 56.1604 15.822C57.5884 15.822 58.6784 16.344 59.4484 17.388V16.064ZM56.4804 23.704C57.3254 23.704 58.0394 23.425 58.6034 22.866C59.1664 22.288 59.4484 21.58 59.4484 20.723C59.4484 19.8663 59.1668 19.1583 58.6034 18.599C58.0394 18.021 57.3254 17.742 56.4804 17.742C55.6354 17.742 54.9204 18.022 54.3574 18.599C53.7934 19.1583 53.5114 19.8663 53.5114 20.723C53.5114 21.58 53.7934 22.289 54.3574 22.866C54.9204 23.426 55.6344 23.704 56.4804 23.704ZM67.2644 19.847C68.7104 20.164 70.5894 20.761 70.5514 22.754C70.5514 23.649 70.1954 24.357 69.5004 24.86C68.8054 25.363 67.9404 25.624 66.8884 25.624C65.0284 25.624 63.6574 24.804 63.0564 23.444L64.8034 22.438C65.1234 23.332 65.8184 23.779 66.8884 23.779C67.9584 23.779 68.4854 23.425 68.4854 22.736C68.4854 22.139 67.6964 21.786 66.7004 21.543C65.2914 21.189 63.3944 20.63 63.4314 18.673C63.4314 17.816 63.7514 17.127 64.4084 16.605C65.0664 16.083 65.8924 15.822 66.8694 15.822C68.4294 15.822 69.6884 16.549 70.3454 17.76L68.6354 18.71C68.3154 18.003 67.7154 17.648 66.8694 17.648C66.0994 17.648 65.4984 17.984 65.4984 18.636C65.4984 19.251 66.2884 19.568 67.2644 19.847ZM77.4944 18.002H75.1644V22.474C75.1644 23.667 75.9544 23.648 77.4944 23.574V25.381C74.3944 25.754 73.1364 24.916 73.1364 22.474V18.002H71.4074V16.064H73.1364V14.05L75.1654 13.454V16.063H77.4954L77.4944 18.002ZM86.3504 16.064H88.3804V25.382H86.3504V24.04C85.5804 25.102 84.4904 25.624 83.0634 25.624C81.7674 25.624 80.6774 25.158 79.7574 24.208C78.8364 23.258 78.3854 22.084 78.3854 20.723C78.3854 19.344 78.8354 18.189 79.7564 17.238C80.6764 16.288 81.7664 15.822 83.0634 15.822C84.4914 15.822 85.5804 16.344 86.3504 17.388V16.064ZM83.3824 23.704C84.2274 23.704 84.9424 23.425 85.5054 22.866C86.0694 22.288 86.3504 21.58 86.3504 20.723C86.3504 19.8663 86.0688 19.1583 85.5054 18.599C84.9414 18.021 84.2274 17.742 83.3824 17.742C82.5374 17.742 81.8224 18.022 81.2594 18.599C80.6954 19.1583 80.4138 19.8663 80.4144 20.723C80.4144 21.58 80.6954 22.289 81.2594 22.866C81.8234 23.426 82.5374 23.704 83.3824 23.704ZM99.1584 19.661V25.381H97.1304V19.866C97.1304 18.468 96.3224 17.704 95.0264 17.704C93.5984 17.704 92.6404 18.58 92.6404 20.388V25.382H90.6104V16.064H92.6394V17.257C93.2594 16.307 94.2174 15.822 95.5514 15.822C97.7114 15.822 99.1584 17.276 99.1584 19.662M108.683 16.064H110.712V25.382H108.683V24.04C107.913 25.102 106.823 25.624 105.395 25.624C104.099 25.624 103.009 25.158 102.089 24.208C101.168 23.258 100.717 22.084 100.717 20.723C100.717 19.344 101.168 18.189 102.089 17.238C103.009 16.288 104.099 15.822 105.395 15.822C106.823 15.822 107.913 16.344 108.683 17.388V16.064ZM105.715 23.704C106.56 23.704 107.274 23.425 107.838 22.866C108.401 22.288 108.683 21.58 108.683 20.723C108.683 19.8663 108.402 19.1583 107.838 18.599C107.274 18.021 106.56 17.742 105.715 17.742C104.87 17.742 104.156 18.022 103.592 18.599C103.028 19.1583 102.747 19.8663 102.747 20.723C102.747 21.58 103.028 22.289 103.592 22.866C104.156 23.426 104.869 23.704 105.715 23.704ZM126.325 19.661V25.382H124.296V19.866C124.296 18.469 123.489 17.705 122.193 17.705C120.764 17.705 119.806 18.581 119.806 20.388V25.382H117.778V12.338H119.806V17.258C120.427 16.307 121.384 15.823 122.718 15.823C124.878 15.823 126.325 17.276 126.325 19.661ZM134.787 16.064H136.816V25.381H134.787V24.188C134.167 25.138 133.209 25.623 131.875 25.623C129.715 25.623 128.268 24.17 128.268 21.784V16.064H130.297V21.579C130.297 22.977 131.106 23.741 132.402 23.741C133.829 23.741 134.787 22.865 134.787 21.058V16.064ZM147.661 17.239C148.581 18.189 149.032 19.344 149.032 20.724C149.032 22.084 148.581 23.258 147.661 24.208C146.74 25.158 145.65 25.625 144.354 25.625C142.927 25.625 141.837 25.103 141.066 24.04V25.382H139.037V12.338H141.066V17.388C141.837 16.344 142.927 15.823 144.354 15.823C145.65 15.823 146.74 16.288 147.661 17.239ZM144.035 23.705C144.88 23.705 145.594 23.425 146.157 22.866C146.721 22.289 147.003 21.581 147.003 20.724C147.003 19.866 146.721 19.1577 146.157 18.599C145.594 18.022 144.88 17.742 144.035 17.742C143.189 17.742 142.475 18.022 141.912 18.599C141.348 19.1583 141.066 19.8667 141.066 20.724C141.066 21.581 141.348 22.289 141.912 22.866C142.475 23.426 143.189 23.705 144.035 23.705Z" fill="#0E8AC8"/>
        <path d="M38.65 26.205C38.62 26.3084 38.589 26.411 38.557 26.513L38.527 26.61L38.407 26.977L38.379 27.06C38.335 27.1854 38.2903 27.3104 38.245 27.435L38.213 27.522C38.1676 27.6447 38.121 27.7667 38.073 27.888L38.037 27.979C37.9883 28.1004 37.9383 28.2207 37.887 28.34L37.849 28.43C37.7996 28.5454 37.7493 28.6597 37.698 28.773L37.655 28.868L37.498 29.202L37.45 29.301L37.287 29.625L37.235 29.726C37.179 29.834 37.1216 29.9417 37.063 30.049L37.013 30.143C36.9523 30.2524 36.8906 30.3614 36.828 30.47L36.772 30.567C36.71 30.6737 36.6466 30.7794 36.582 30.884L36.524 30.98L36.333 31.283L36.267 31.385C36.2036 31.4824 36.14 31.5784 36.076 31.673L36.002 31.782L35.806 32.062L35.728 32.17L35.526 32.446L35.447 32.55L35.237 32.823L35.153 32.928L34.933 33.199L34.849 33.3C34.6784 33.503 34.5041 33.7027 34.326 33.899L34.211 34.024C33.9251 34.3345 33.6289 34.6353 33.323 34.926L33.223 35.022L32.972 35.252L32.85 35.362C32.6584 35.5323 32.4641 35.6993 32.267 35.863L32.14 35.968C31.6412 36.3727 31.1233 36.7532 30.588 37.108C30.3652 37.2564 30.1391 37.3997 29.91 37.538L29.788 37.612L29.505 37.778L29.382 37.848L29.091 38.01L28.972 38.073C28.8706 38.1277 28.769 38.181 28.667 38.233L28.557 38.289C28.4483 38.3444 28.339 38.3984 28.229 38.451L28.139 38.494C28.023 38.55 27.9063 38.6044 27.789 38.657L27.693 38.699C27.5716 38.7537 27.449 38.807 27.325 38.859L27.246 38.892C27.1213 38.9454 26.9953 38.9964 26.868 39.045L26.791 39.075C26.667 39.123 26.5426 39.17 26.418 39.216L26.34 39.244C26.2146 39.2894 26.089 39.3334 25.963 39.376L25.887 39.401C25.759 39.4437 25.6303 39.485 25.501 39.525L25.427 39.548C25.297 39.588 25.1663 39.6267 25.035 39.664L24.963 39.684C24.8283 39.722 24.693 39.7587 24.557 39.794L24.497 39.809C24.3516 39.8457 24.206 39.881 24.06 39.915L24.032 39.921C23.876 39.957 23.7193 39.991 23.562 40.023L23.546 40.026C23.3926 40.0567 23.238 40.086 23.082 40.114L23.044 40.121C22.8953 40.147 22.746 40.1714 22.596 40.194L22.549 40.201C22.4016 40.2237 22.254 40.2444 22.106 40.263L22.053 40.27C21.9052 40.2884 21.7572 40.3051 21.609 40.32L21.558 40.325C21.4073 40.3397 21.256 40.353 21.104 40.365L21.06 40.368C20.9046 40.38 20.7486 40.39 20.592 40.398L20.561 40.399C20.3983 40.4077 20.235 40.414 20.071 40.418H20.058C19.7187 40.4267 19.3793 40.4267 19.04 40.418H19.027C18.8636 40.414 18.7006 40.4077 18.538 40.399L18.506 40.398C18.3502 40.3898 18.1945 40.3798 18.039 40.368L17.994 40.365C17.8428 40.3533 17.6918 40.34 17.541 40.325L17.49 40.32C17.3418 40.305 17.1938 40.2883 17.046 40.27L16.993 40.263C16.845 40.2437 16.6973 40.223 16.55 40.201L16.502 40.194C16.3526 40.172 16.204 40.1477 16.056 40.121L16.016 40.114C15.8616 40.0866 15.7076 40.0573 15.554 40.026L15.537 40.023C15.3802 39.9912 15.2239 39.9576 15.068 39.922L15.037 39.914C14.8916 39.8807 14.7466 39.8457 14.602 39.809L14.542 39.793C14.4062 39.7583 14.2709 39.7219 14.136 39.684L14.063 39.664C13.933 39.6274 13.803 39.589 13.673 39.549L13.597 39.525C13.469 39.485 13.3413 39.444 13.214 39.402L13.134 39.375C13.0086 39.333 12.884 39.2897 12.76 39.245L12.68 39.215L12.31 39.076L12.229 39.045L11.857 38.894L11.769 38.857L11.406 38.7L11.309 38.656L10.962 38.496L10.867 38.449L10.542 38.289L10.43 38.232L10.127 38.073L10.007 38.008L9.71697 37.848L9.59297 37.778C9.49831 37.7234 9.40431 37.668 9.31097 37.612L9.18897 37.539C8.54437 37.1456 7.92147 36.7176 7.32297 36.257L7.19997 36.16C6.74263 35.8001 6.30121 35.4204 5.87697 35.022L5.77597 34.926C5.47064 34.6344 5.17417 34.3336 4.88697 34.024L4.77297 33.899L4.56697 33.669L4.46097 33.548C4.39031 33.466 4.32031 33.3837 4.25097 33.301L4.16297 33.196C3.88942 32.8646 3.62661 32.5244 3.37497 32.176L3.28897 32.056L3.10097 31.788L3.01897 31.666L2.83497 31.39L2.76097 31.276L2.57797 30.984L2.51397 30.88L2.32997 30.572L2.26797 30.465L2.08797 30.147L2.03197 30.044L1.86797 29.734L1.80797 29.619L1.65197 29.306L1.59797 29.195L1.44797 28.875L1.39797 28.766C1.34731 28.6554 1.29797 28.5444 1.24997 28.433L1.20897 28.336L1.06197 27.979L1.02597 27.888C0.978057 27.7668 0.931387 27.6452 0.885974 27.523L0.851974 27.431C0.807307 27.3077 0.763307 27.1844 0.719974 27.061L0.691974 26.977L0.571974 26.61L0.541974 26.513L0.448974 26.205C0.336267 25.7831 0.3826 25.3345 0.579157 24.9445C0.775714 24.5545 1.10878 24.2504 1.51497 24.09C5.81697 22.404 12.299 21.331 19.549 21.331C26.8 21.331 33.282 22.404 37.584 24.091C37.9898 24.2516 38.3224 24.5556 38.5188 24.9453C38.7151 25.3351 38.7615 25.7834 38.649 26.205M0.449974 15.193C0.479974 15.0897 0.51064 14.9864 0.541974 14.883L0.571974 14.791C0.611974 14.6664 0.651974 14.5424 0.691974 14.419L0.719974 14.34C0.763307 14.2134 0.807974 14.0877 0.853974 13.963L0.883974 13.879C0.93064 13.7544 0.977974 13.631 1.02597 13.509L1.06097 13.422C1.10964 13.3 1.15964 13.179 1.21097 13.059L1.24797 12.971C1.29797 12.8557 1.34831 12.7414 1.39897 12.628L1.44597 12.526C1.49597 12.418 1.54664 12.3107 1.59797 12.204L1.65097 12.094C1.70297 11.9874 1.75597 11.8817 1.80997 11.777L1.86497 11.669C1.92031 11.563 1.97664 11.4577 2.03397 11.353L2.08897 11.252C2.14764 11.1454 2.20764 11.039 2.26897 10.933L2.32897 10.827L2.51597 10.515L2.57597 10.417C2.63664 10.317 2.69864 10.2187 2.76197 10.122L2.83497 10.008L3.01997 9.73002L3.10097 9.61002L3.29097 9.34002L3.37297 9.22402C3.43764 9.13402 3.50331 9.04469 3.56997 8.95602L3.65397 8.84602C3.72264 8.75602 3.79197 8.66602 3.86197 8.57602L3.94497 8.47102C4.01831 8.37969 4.09164 8.28936 4.16497 8.20002L4.24997 8.09802C4.32131 8.01336 4.39297 7.92936 4.46497 7.84602L4.56297 7.73402L4.77697 7.49402L4.88297 7.37902C4.95497 7.30102 5.02731 7.22402 5.09997 7.14802L5.21097 7.03202C5.39558 6.84163 5.58395 6.65493 5.77597 6.47202L5.87597 6.37702L6.12697 6.14502L6.24897 6.03602C6.55835 5.76035 6.87583 5.49391 7.20097 5.23702L7.32297 5.14202L7.57397 4.95102L7.71397 4.84702C8.19079 4.49636 8.68294 4.16704 9.18897 3.86002L9.30897 3.78702L9.59697 3.61902L9.71197 3.55302C9.80997 3.49769 9.90831 3.44336 10.007 3.39002L10.127 3.32502C10.227 3.27102 10.328 3.21802 10.43 3.16602L10.542 3.10902L10.867 2.94902L10.962 2.90302C11.0766 2.84836 11.1923 2.79502 11.309 2.74302L11.406 2.69902C11.526 2.64502 11.647 2.59236 11.769 2.54102L11.857 2.50402C11.9796 2.45269 12.1036 2.40269 12.229 2.35402L12.31 2.32202C12.4333 2.27402 12.5566 2.22736 12.68 2.18202L12.76 2.15402C12.884 2.10869 13.0086 2.06502 13.134 2.02302L13.214 1.99602C13.3406 1.95402 13.4683 1.91302 13.597 1.87302L13.673 1.85002C13.803 1.81002 13.933 1.77136 14.063 1.73402L14.136 1.71402C14.2706 1.67669 14.4056 1.64002 14.541 1.60402L14.602 1.58902C14.7473 1.55236 14.8923 1.51736 15.037 1.48402L15.068 1.47702C15.2233 1.44102 15.3796 1.40702 15.537 1.37502L15.554 1.37202C15.7073 1.34136 15.8613 1.31202 16.016 1.28402L16.056 1.27702C16.204 1.25102 16.3526 1.22669 16.502 1.20402L16.55 1.19702C16.6966 1.17502 16.8443 1.15436 16.993 1.13502L17.046 1.12902C17.1926 1.11036 17.3406 1.09369 17.49 1.07902L17.541 1.07302C17.6916 1.05836 17.8426 1.04502 17.994 1.03302L18.04 1.03002C18.1953 1.01869 18.351 1.00869 18.507 1.00002H18.538C18.7006 0.992023 18.8636 0.98569 19.027 0.981023H19.04C19.3793 0.972797 19.7187 0.972797 20.058 0.981023H20.072C20.2346 0.985023 20.3976 0.991356 20.561 1.00002L20.592 1.00202C20.7486 1.00936 20.9046 1.01902 21.06 1.03102L21.104 1.03402C21.256 1.04602 21.4073 1.05936 21.558 1.07402L21.608 1.07902C21.7573 1.09436 21.9056 1.11102 22.053 1.12902L22.106 1.13602C22.254 1.15602 22.4016 1.17669 22.549 1.19802L22.596 1.20502C22.7466 1.22769 22.896 1.25236 23.044 1.27902L23.082 1.28502C23.2373 1.31302 23.392 1.34236 23.546 1.37302L23.561 1.37602C23.719 1.40802 23.8756 1.44202 24.031 1.47802L24.06 1.48502C24.206 1.51836 24.3513 1.55336 24.496 1.59002L24.557 1.60602C24.6936 1.64069 24.829 1.67702 24.963 1.71502L25.035 1.73502C25.167 1.77236 25.2976 1.81102 25.427 1.85102L25.502 1.87402C25.6306 1.91402 25.759 1.95536 25.887 1.99802L25.963 2.02302C26.0896 2.06569 26.2153 2.10969 26.34 2.15502L26.418 2.18302C26.5433 2.22902 26.6676 2.27602 26.791 2.32402L26.868 2.35402C26.9946 2.40336 27.1206 2.45436 27.246 2.50702L27.326 2.54002C27.4486 2.59202 27.571 2.64536 27.693 2.70002L27.789 2.74302C27.9063 2.79636 28.023 2.85036 28.139 2.90502L28.229 2.94802C28.339 3.00136 28.4483 3.05536 28.557 3.11002L28.667 3.16602L28.972 3.32602L29.09 3.38902L29.386 3.55402L29.502 3.62002C29.598 3.67536 29.6936 3.73136 29.789 3.78802L29.91 3.86102C30.1916 4.03276 30.4693 4.2108 30.743 4.39502C31.0959 4.63393 31.4411 4.88406 31.778 5.14502L31.896 5.23702C31.9793 5.30169 32.0613 5.36736 32.142 5.43402L32.264 5.53402C32.3426 5.59869 32.421 5.66436 32.499 5.73102L32.623 5.83702C32.8263 6.01334 33.0263 6.19337 33.223 6.37702L33.323 6.47302L33.552 6.69502L33.669 6.81102C33.8547 6.99708 34.0367 7.18679 34.215 7.38002L34.322 7.49502L34.538 7.73702L34.632 7.84502C34.7053 7.92969 34.7776 8.01469 34.849 8.10002L34.931 8.19702L35.154 8.47202L35.234 8.57402C35.3073 8.66736 35.38 8.76102 35.452 8.85502L35.525 8.95302C35.5943 9.04502 35.6623 9.13736 35.729 9.23002L35.804 9.33502C35.8706 9.42836 35.9366 9.52269 36.002 9.61802L36.074 9.72502C36.14 9.82036 36.2043 9.91702 36.267 10.015L36.333 10.115C36.3983 10.2177 36.4626 10.3204 36.526 10.423L36.581 10.513C36.645 10.6184 36.7083 10.725 36.771 10.833L36.828 10.93C36.8906 11.038 36.952 11.147 37.012 11.257L37.062 11.348C37.122 11.458 37.1806 11.568 37.238 11.678L37.286 11.771C37.3413 11.8804 37.396 11.99 37.45 12.1L37.498 12.198C37.5513 12.3087 37.604 12.4207 37.656 12.534L37.696 12.622C37.7493 12.738 37.8013 12.8554 37.852 12.974L37.887 13.056C37.9376 13.1774 37.9876 13.2997 38.037 13.423L38.072 13.509C38.1206 13.6324 38.168 13.7564 38.214 13.881L38.244 13.961C38.29 14.0864 38.335 14.213 38.379 14.341L38.406 14.421L38.528 14.791L38.556 14.884C38.588 14.9874 38.619 15.0907 38.649 15.194C38.7617 15.6158 38.7155 16.0643 38.5192 16.4543C38.3228 16.8443 37.99 17.1485 37.584 17.309C33.282 18.995 26.8 20.068 19.549 20.068C12.298 20.068 5.81697 18.994 1.51497 17.308C1.10878 17.1476 0.775714 16.8435 0.579157 16.4536C0.3826 16.0636 0.337267 15.6149 0.449974 15.193Z" fill="white"/>
        <path d="M36.224 23.602C34.838 31.492 27.9 37.49 19.55 37.49C11.2 37.49 4.262 31.491 2.876 23.602C7.126 22.2 13.027 21.332 19.55 21.332C26.074 21.332 31.973 22.2 36.224 23.602ZM2.875 17.796C4.262 9.90602 11.199 3.90802 19.55 3.90802C27.901 3.90802 34.839 9.90602 36.225 17.796C31.974 19.198 26.074 20.066 19.55 20.066C13.027 20.066 7.126 19.198 2.875 17.796Z" fill="#D0D5DD"/>
        <path d="M33.3593 22.796C32.3393 29.453 26.5453 34.554 19.5493 34.554C12.5543 34.554 6.75926 29.453 5.73926 22.796C9.61426 21.874 14.3863 21.33 19.5493 21.33C24.7123 21.33 29.4853 21.874 33.3593 22.796ZM5.73926 18.599C6.75926 11.943 12.5543 6.84201 19.5493 6.84201C26.5453 6.84201 32.3393 11.942 33.3593 18.599C29.4853 19.521 24.7123 20.065 19.5493 20.065C14.3863 20.065 9.61426 19.521 5.74026 18.6" fill="#109DE5"/>
        <path d="M30.4536 22.207C29.7136 27.525 25.1136 31.621 19.5486 31.621C13.9836 31.621 9.38455 27.525 8.64355 22.207C11.9016 21.648 15.6116 21.332 19.5486 21.332C23.4856 21.332 27.1966 21.648 30.4536 22.207ZM8.64355 19.192C9.38355 13.874 13.9836 9.77802 19.5486 9.77802C25.1136 9.77802 29.7136 13.874 30.4536 19.192C27.1956 19.751 23.4856 20.067 19.5486 20.067C15.6116 20.067 11.9016 19.751 8.64355 19.192Z" fill="#0E8AC8"/>
        <path d="M27.5263 21.785C26.9923 25.682 23.6243 28.685 19.5493 28.685C15.4743 28.685 12.1073 25.682 11.5723 21.785C14.2203 21.4797 16.8837 21.3281 19.5493 21.331C22.3503 21.331 25.0363 21.491 27.5263 21.785ZM11.5723 19.613C12.1073 15.716 15.4743 12.713 19.5493 12.713C23.6243 12.713 26.9923 15.716 27.5263 19.613C25.0363 19.907 22.3503 20.067 19.5493 20.067C16.7493 20.067 14.0633 19.907 11.5723 19.613Z" fill="#0E8AC8"/>
    </g>
</svg>
